<mxfile host="Electron" modified="2024-06-09T22:49:11.842Z" agent="Mozilla/5.0 (Windows NT 10.0; Win64; x64) AppleWebKit/537.36 (KHTML, like Gecko) draw.io/24.4.13 Chrome/124.0.6367.207 Electron/30.0.6 Safari/537.36" etag="7YtRuFIrCYyNnMkvpDPc" version="24.4.13" type="device">
  <diagram name="Page-1" id="eSZ7TBxctsPy7ZA62q76">
    <mxGraphModel dx="819" dy="1647" grid="1" gridSize="10" guides="1" tooltips="1" connect="1" arrows="1" fold="1" page="1" pageScale="1" pageWidth="827" pageHeight="1169" math="0" shadow="0">
      <root>
        <mxCell id="0" />
        <mxCell id="1" parent="0" />
        <mxCell id="2KVO0waB-vLQmEQrmc2O-27" style="edgeStyle=orthogonalEdgeStyle;rounded=0;orthogonalLoop=1;jettySize=auto;html=1;" edge="1" parent="1" source="2KVO0waB-vLQmEQrmc2O-5" target="2KVO0waB-vLQmEQrmc2O-17">
          <mxGeometry relative="1" as="geometry">
            <Array as="points">
              <mxPoint x="580" y="120" />
              <mxPoint x="580" y="120" />
            </Array>
          </mxGeometry>
        </mxCell>
        <mxCell id="2KVO0waB-vLQmEQrmc2O-28" value="&lt;font style=&quot;font-size: 10px;&quot;&gt;Product Listings&lt;/font&gt;" style="edgeLabel;html=1;align=center;verticalAlign=middle;resizable=0;points=[];" vertex="1" connectable="0" parent="2KVO0waB-vLQmEQrmc2O-27">
          <mxGeometry x="-0.1421" y="-2" relative="1" as="geometry">
            <mxPoint x="9" y="-2" as="offset" />
          </mxGeometry>
        </mxCell>
        <mxCell id="2KVO0waB-vLQmEQrmc2O-29" style="edgeStyle=orthogonalEdgeStyle;rounded=0;orthogonalLoop=1;jettySize=auto;html=1;" edge="1" parent="1" source="2KVO0waB-vLQmEQrmc2O-5" target="2KVO0waB-vLQmEQrmc2O-17">
          <mxGeometry relative="1" as="geometry">
            <Array as="points">
              <mxPoint x="580" y="110" />
              <mxPoint x="580" y="110" />
            </Array>
          </mxGeometry>
        </mxCell>
        <mxCell id="2KVO0waB-vLQmEQrmc2O-30" value="&lt;font style=&quot;font-size: 10px;&quot;&gt;Cart Items&lt;/font&gt;" style="edgeLabel;html=1;align=center;verticalAlign=middle;resizable=0;points=[];" vertex="1" connectable="0" parent="2KVO0waB-vLQmEQrmc2O-29">
          <mxGeometry x="0.2932" y="2" relative="1" as="geometry">
            <mxPoint x="-18" as="offset" />
          </mxGeometry>
        </mxCell>
        <mxCell id="2KVO0waB-vLQmEQrmc2O-38" style="edgeStyle=orthogonalEdgeStyle;rounded=0;orthogonalLoop=1;jettySize=auto;html=1;" edge="1" parent="1" source="2KVO0waB-vLQmEQrmc2O-5" target="2KVO0waB-vLQmEQrmc2O-15">
          <mxGeometry relative="1" as="geometry">
            <Array as="points">
              <mxPoint x="440" y="30" />
              <mxPoint x="440" y="30" />
            </Array>
          </mxGeometry>
        </mxCell>
        <mxCell id="2KVO0waB-vLQmEQrmc2O-40" value="&lt;font style=&quot;font-size: 10px;&quot;&gt;Analytics&lt;/font&gt;" style="edgeLabel;html=1;align=center;verticalAlign=middle;resizable=0;points=[];rotation=-90;" vertex="1" connectable="0" parent="2KVO0waB-vLQmEQrmc2O-38">
          <mxGeometry x="0.125" y="2" relative="1" as="geometry">
            <mxPoint y="5" as="offset" />
          </mxGeometry>
        </mxCell>
        <mxCell id="2KVO0waB-vLQmEQrmc2O-44" style="edgeStyle=orthogonalEdgeStyle;rounded=0;orthogonalLoop=1;jettySize=auto;html=1;" edge="1" parent="1" source="2KVO0waB-vLQmEQrmc2O-5" target="2KVO0waB-vLQmEQrmc2O-18">
          <mxGeometry relative="1" as="geometry">
            <Array as="points">
              <mxPoint x="380" y="120" />
              <mxPoint x="380" y="120" />
            </Array>
          </mxGeometry>
        </mxCell>
        <mxCell id="2KVO0waB-vLQmEQrmc2O-46" value="DB Content" style="edgeLabel;html=1;align=center;verticalAlign=middle;resizable=0;points=[];" vertex="1" connectable="0" parent="2KVO0waB-vLQmEQrmc2O-44">
          <mxGeometry x="-0.0452" y="-2" relative="1" as="geometry">
            <mxPoint x="2" y="1" as="offset" />
          </mxGeometry>
        </mxCell>
        <mxCell id="2KVO0waB-vLQmEQrmc2O-5" value="E-Commerce Website" style="rounded=1;whiteSpace=wrap;html=1;" vertex="1" parent="1">
          <mxGeometry x="400" y="70" width="120" height="60" as="geometry" />
        </mxCell>
        <mxCell id="2KVO0waB-vLQmEQrmc2O-12" value="" style="endArrow=none;html=1;rounded=0;entryX=1;entryY=0.25;entryDx=0;entryDy=0;exitX=0;exitY=0.25;exitDx=0;exitDy=0;" edge="1" parent="1" source="2KVO0waB-vLQmEQrmc2O-5" target="2KVO0waB-vLQmEQrmc2O-5">
          <mxGeometry width="50" height="50" relative="1" as="geometry">
            <mxPoint x="250" y="180" as="sourcePoint" />
            <mxPoint x="300" y="130" as="targetPoint" />
          </mxGeometry>
        </mxCell>
        <mxCell id="2KVO0waB-vLQmEQrmc2O-13" value="&lt;font style=&quot;font-size: 8px;&quot;&gt;0&lt;/font&gt;" style="text;html=1;align=center;verticalAlign=middle;resizable=0;points=[];autosize=1;strokeColor=none;fillColor=none;" vertex="1" parent="1">
          <mxGeometry x="444" y="60" width="30" height="30" as="geometry" />
        </mxCell>
        <mxCell id="2KVO0waB-vLQmEQrmc2O-23" style="edgeStyle=orthogonalEdgeStyle;rounded=0;orthogonalLoop=1;jettySize=auto;html=1;" edge="1" parent="1" source="2KVO0waB-vLQmEQrmc2O-15" target="2KVO0waB-vLQmEQrmc2O-5">
          <mxGeometry relative="1" as="geometry">
            <Array as="points">
              <mxPoint x="460" y="30" />
              <mxPoint x="460" y="30" />
            </Array>
          </mxGeometry>
        </mxCell>
        <mxCell id="2KVO0waB-vLQmEQrmc2O-35" value="&lt;font style=&quot;font-size: 10px;&quot;&gt;Login Info&lt;/font&gt;" style="edgeLabel;html=1;align=center;verticalAlign=middle;resizable=0;points=[];rotation=-90;" vertex="1" connectable="0" parent="2KVO0waB-vLQmEQrmc2O-23">
          <mxGeometry x="-0.1714" y="-1" relative="1" as="geometry">
            <mxPoint y="7" as="offset" />
          </mxGeometry>
        </mxCell>
        <mxCell id="2KVO0waB-vLQmEQrmc2O-48" style="edgeStyle=orthogonalEdgeStyle;rounded=0;orthogonalLoop=1;jettySize=auto;html=1;" edge="1" parent="1" source="2KVO0waB-vLQmEQrmc2O-15" target="2KVO0waB-vLQmEQrmc2O-5">
          <mxGeometry relative="1" as="geometry">
            <Array as="points">
              <mxPoint x="480" y="30" />
              <mxPoint x="480" y="30" />
            </Array>
          </mxGeometry>
        </mxCell>
        <mxCell id="2KVO0waB-vLQmEQrmc2O-49" value="Analytics Request" style="edgeLabel;html=1;align=center;verticalAlign=middle;resizable=0;points=[];rotation=-90;" vertex="1" connectable="0" parent="2KVO0waB-vLQmEQrmc2O-48">
          <mxGeometry x="-0.1821" y="1" relative="1" as="geometry">
            <mxPoint x="-2" y="4" as="offset" />
          </mxGeometry>
        </mxCell>
        <mxCell id="2KVO0waB-vLQmEQrmc2O-15" value="Client" style="rounded=0;whiteSpace=wrap;html=1;" vertex="1" parent="1">
          <mxGeometry x="399" y="-80" width="120" height="40" as="geometry" />
        </mxCell>
        <mxCell id="2KVO0waB-vLQmEQrmc2O-25" style="edgeStyle=orthogonalEdgeStyle;rounded=0;orthogonalLoop=1;jettySize=auto;html=1;" edge="1" parent="1" source="2KVO0waB-vLQmEQrmc2O-17" target="2KVO0waB-vLQmEQrmc2O-5">
          <mxGeometry relative="1" as="geometry">
            <Array as="points">
              <mxPoint x="580" y="90" />
              <mxPoint x="580" y="90" />
            </Array>
          </mxGeometry>
        </mxCell>
        <mxCell id="2KVO0waB-vLQmEQrmc2O-26" value="&lt;font style=&quot;font-size: 10px;&quot;&gt;Login Info&lt;/font&gt;" style="edgeLabel;html=1;align=center;verticalAlign=middle;resizable=0;points=[];rotation=0;" vertex="1" connectable="0" parent="2KVO0waB-vLQmEQrmc2O-25">
          <mxGeometry x="0.0405" y="1" relative="1" as="geometry">
            <mxPoint x="2" y="-1" as="offset" />
          </mxGeometry>
        </mxCell>
        <mxCell id="2KVO0waB-vLQmEQrmc2O-31" style="edgeStyle=orthogonalEdgeStyle;rounded=0;orthogonalLoop=1;jettySize=auto;html=1;" edge="1" parent="1" target="2KVO0waB-vLQmEQrmc2O-5">
          <mxGeometry relative="1" as="geometry">
            <mxPoint x="640" y="110" as="sourcePoint" />
            <mxPoint x="520" y="110" as="targetPoint" />
            <Array as="points">
              <mxPoint x="640" y="80" />
            </Array>
          </mxGeometry>
        </mxCell>
        <mxCell id="2KVO0waB-vLQmEQrmc2O-32" value="&lt;font style=&quot;font-size: 10px;&quot;&gt;Cart Add Request&lt;/font&gt;" style="edgeLabel;html=1;align=center;verticalAlign=middle;resizable=0;points=[];" vertex="1" connectable="0" parent="2KVO0waB-vLQmEQrmc2O-31">
          <mxGeometry x="-0.1657" y="-2" relative="1" as="geometry">
            <mxPoint x="-30" y="2" as="offset" />
          </mxGeometry>
        </mxCell>
        <mxCell id="2KVO0waB-vLQmEQrmc2O-17" value="Customer" style="rounded=0;whiteSpace=wrap;html=1;" vertex="1" parent="1">
          <mxGeometry x="630" y="70" width="120" height="60" as="geometry" />
        </mxCell>
        <mxCell id="2KVO0waB-vLQmEQrmc2O-20" style="edgeStyle=orthogonalEdgeStyle;rounded=0;orthogonalLoop=1;jettySize=auto;html=1;" edge="1" parent="1" source="2KVO0waB-vLQmEQrmc2O-18" target="2KVO0waB-vLQmEQrmc2O-5">
          <mxGeometry relative="1" as="geometry">
            <Array as="points">
              <mxPoint x="340" y="80" />
              <mxPoint x="340" y="80" />
            </Array>
          </mxGeometry>
        </mxCell>
        <mxCell id="2KVO0waB-vLQmEQrmc2O-21" value="&lt;font style=&quot;font-size: 10px;&quot;&gt;Login Info&lt;/font&gt;" style="edgeLabel;html=1;align=center;verticalAlign=middle;resizable=0;points=[];" vertex="1" connectable="0" parent="2KVO0waB-vLQmEQrmc2O-20">
          <mxGeometry x="0.0167" y="1" relative="1" as="geometry">
            <mxPoint as="offset" />
          </mxGeometry>
        </mxCell>
        <mxCell id="2KVO0waB-vLQmEQrmc2O-41" style="edgeStyle=orthogonalEdgeStyle;rounded=0;orthogonalLoop=1;jettySize=auto;html=1;" edge="1" parent="1" source="2KVO0waB-vLQmEQrmc2O-18" target="2KVO0waB-vLQmEQrmc2O-5">
          <mxGeometry relative="1" as="geometry" />
        </mxCell>
        <mxCell id="2KVO0waB-vLQmEQrmc2O-42" value="&lt;font style=&quot;font-size: 10px;&quot;&gt;DB Queries&lt;/font&gt;" style="edgeLabel;html=1;align=center;verticalAlign=middle;resizable=0;points=[];" vertex="1" connectable="0" parent="2KVO0waB-vLQmEQrmc2O-41">
          <mxGeometry x="0.2643" relative="1" as="geometry">
            <mxPoint x="-14" as="offset" />
          </mxGeometry>
        </mxCell>
        <mxCell id="2KVO0waB-vLQmEQrmc2O-18" value="Admin" style="rounded=0;whiteSpace=wrap;html=1;" vertex="1" parent="1">
          <mxGeometry x="200" y="70" width="120" height="60" as="geometry" />
        </mxCell>
        <mxCell id="2KVO0waB-vLQmEQrmc2O-47" value="&lt;font style=&quot;font-size: 24px;&quot;&gt;DB_DDnD_CTX&lt;/font&gt;" style="text;html=1;align=center;verticalAlign=middle;resizable=0;points=[];autosize=1;strokeColor=none;fillColor=none;" vertex="1" parent="1">
          <mxGeometry x="359" y="-130" width="200" height="40" as="geometry" />
        </mxCell>
      </root>
    </mxGraphModel>
  </diagram>
</mxfile>
